<svg width="714" height="504" viewBox="0 0 714 504" fill="none" xmlns="http://www.w3.org/2000/svg">
<path d="M709.49 147C709.49 341.675 551.675 499.49 357 499.49C338.142 499.49 319.63 498.01 301.573 495.158L299.16 499.338C317.986 502.405 337.307 504 357 504C554.166 504 714 344.166 714 147C714 -50.1657 554.166 -210 357 -210C159.834 -210 0 -50.1657 0 147C0 317.167 119.058 459.527 278.419 495.324L280.784 491.229C122.748 456.395 4.50947 315.506 4.50947 147C4.50947 -47.6751 162.325 -205.491 357 -205.491C551.675 -205.491 709.49 -47.6751 709.49 147Z" fill="white"/>
</svg>
